# xmcd
#
# Track frame offsets:
#	150
#	15383
#	26513
#	39073
#	50780
#	62700
#	69155
#	84723
#	96538
#	108020
#	119945
#	132595
#	143863
#	153658
#	171785
#	183088
#	195753
#	206538
#	217813
#	231415
#	258590
#	268683
#	279670
#	291795
#	304413
#
# Disc length: 4222 seconds
#
# Revision: 4294049779
# Processed by: cddbd v1.5.2PL0 Copyright (c) Steve Scherf et al.
# Submitted via: EZCDAudioConverter 9.1.1.1
#
DISCID=72107c19
DTITLE=Various Artist - Blues Collection Vol 2  (Tring KD-002)
DYEAR=1900
DGENRE=Blues
TTITLE0=Howlin’ Wolf - Commit A Crime
TTITLE1=John Lee Hooker - Boom Boom
TTITLE2=Billie Holiday - God Bless the Child
TTITLE3=Muddy Waters - You Gonna Miss Me
TTITLE4=Gatemouth Moore - Did You Ever Love a Woman
TTITLE5=Lightnin’ Hopkins - Just Pickin'
TTITLE6=B.B. King - Walkin' and Cryin'
TTITLE7=Leadbelly - Boll Weevil Blues
TTITLE8=Howlin’ Wolf - Somebody Walkin' in my House
TTITLE9=John Lee Hooker - Frisco Blues
TTITLE10=Billie Holiday - Don't Explain
TTITLE11=Elmore James - Look on Yonder Wall
TTITLE12=Muddy Waters - Mean Red Spider
TTITLE13=Lightnin’ Hopkins - Shake That Thing
TTITLE14=Howlin’ Wolf - My Country Sugar Mama
TTITLE15=B.B. King - Please Love Me
TTITLE16=John Lee Hooker - No Shoes
TTITLE17=Billie Holiday - I Loves You, Porgy
TTITLE18=Leadbelly - The Gallis Pole
TTITLE19=Gatemouth Moore - Beale Street Ain't Beale Street no More
TTITLE20=Muddy Waters - Diamonds at Your Feet
TTITLE21=Roy Milton - Information Blues
TTITLE22=John Lee Hooker - I'm in the Mood
TTITLE23=Howlin’ Wolf - My Mind is Ramblin'
TTITLE24=Jimmy Reed - Little Rain
EXTD=
EXTT0=
EXTT1=
EXTT2=
EXTT3=
EXTT4=
EXTT5=
EXTT6=
EXTT7=
EXTT8=
EXTT9=
EXTT10=
EXTT11=
EXTT12=
EXTT13=
EXTT14=
EXTT15=
EXTT16=
EXTT17=
EXTT18=
EXTT19=
EXTT20=
EXTT21=
EXTT22=
EXTT23=
EXTT24=
PLAYORDER=
